<svg width="2048" height="2048" viewBox="0 0 2048 2048" fill="none" xmlns="http://www.w3.org/2000/svg">
<path d="M387 1693C375.954 1693 367 1684.05 367 1673V1549.5C367 1539.56 374.304 1531.13 384.145 1529.71L450.739 1520.1C458.022 1519.05 464.14 1514.09 466.667 1507.18L883.204 368.131C886.088 360.245 893.59 355 901.987 355H1148.74C1157.15 355 1164.66 360.264 1167.54 368.17L1581.35 1507.14C1583.86 1514.07 1589.99 1519.06 1597.29 1520.11L1663.86 1529.71C1673.7 1531.13 1681 1539.56 1681 1549.5V1673C1681 1684.05 1672.05 1693 1661 1693H1245.24C1234.19 1693 1225.23 1684.05 1225.23 1673V1548.93C1225.23 1539.24 1232.18 1530.94 1241.73 1529.24L1295.54 1519.65C1307.45 1517.53 1314.76 1505.39 1311.08 1493.87L1263.68 1345.76C1261.03 1337.47 1253.33 1331.85 1244.63 1331.85H803.366C794.668 1331.85 786.968 1337.47 784.317 1345.76L736.925 1493.87C733.237 1505.39 740.55 1517.53 752.464 1519.65L806.274 1529.24C815.816 1530.94 822.765 1539.24 822.765 1548.93V1673C822.765 1684.05 813.811 1693 802.765 1693H387ZM861.181 1107.82C856.76 1120.8 866.405 1134.27 880.112 1134.27H1167.89C1181.6 1134.27 1191.24 1120.8 1186.82 1107.83L1039.62 675.716L1027.59 637.91C1027.09 636.345 1025.64 635.282 1024 635.282V635.282C1022.36 635.282 1020.9 636.343 1020.41 637.907L1007.46 678.473L861.181 1107.82Z" fill="white"/>
<rect x="1481" y="1693" width="1338" height="200" rx="20" transform="rotate(-90 1481 1693)" fill="white"/>
</svg>
